<?xml version="1.0" encoding="UTF-8" standalone="no"?>
<!DOCTYPE svg PUBLIC "-//W3C//DTD SVG 1.1//EN"
 "http://www.w3.org/Graphics/SVG/1.1/DTD/svg11.dtd">
<!-- Generated by graphviz version 7.1.0 (0)
 -->
<!-- Title: G Pages: 1 -->
<svg width="406pt" height="360pt"
 viewBox="0.00 0.00 406.00 360.39" xmlns="http://www.w3.org/2000/svg" xmlns:xlink="http://www.w3.org/1999/xlink">
<g id="graph0" class="graph" transform="scale(1 1) rotate(0) translate(4 356.39)">
<title>G</title>
<polygon fill="white" stroke="none" points="-4,4 -4,-356.39 402,-356.39 402,4 -4,4"/>
<g id="clust1" class="cluster">
<title>cluster0</title>
<polygon fill="none" stroke="black" points="8,-73.2 8,-308.39 112,-308.39 112,-73.2 8,-73.2"/>
<text text-anchor="middle" x="60" y="-293.19" font-family="Times,serif" font-size="14.00">back end</text>
</g>
<g id="clust2" class="cluster">
<title>cluster1</title>
<polygon fill="none" stroke="black" points="150,-64 150,-306.99 252,-306.99 252,-64 150,-64"/>
<text text-anchor="middle" x="201" y="-291.79" font-family="Times,serif" font-size="14.00">front end</text>
</g>
<!-- request -->
<g id="node1" class="node">
<title>request</title>
<text text-anchor="middle" x="60" y="-330.69" font-family="Times,serif" font-size="14.00">request</text>
</g>
<!-- server -->
<g id="node3" class="node">
<title>server</title>
<ellipse fill="none" stroke="black" cx="60" cy="-233.09" rx="40.11" ry="40.11"/>
<ellipse fill="none" stroke="black" cx="60" cy="-233.09" rx="44.09" ry="44.09"/>
<text text-anchor="middle" x="60" y="-229.39" font-family="Times,serif" font-size="14.00">server</text>
</g>
<!-- request&#45;&gt;server -->
<g id="edge7" class="edge">
<title>request&#45;&gt;server</title>
<path fill="none" stroke="black" d="M60,-316.74C60,-316.74 60,-316.69 60,-316.58"/>
<ellipse fill="black" stroke="black" cx="60" cy="-312.88" rx="4" ry="4"/>
</g>
<!-- response -->
<g id="node2" class="node">
<title>response</title>
<text text-anchor="middle" x="126" y="-14.3" font-family="Times,serif" font-size="14.00">response</text>
</g>
<!-- index -->
<g id="node4" class="node">
<title>index</title>
<ellipse fill="none" stroke="black" cx="201" cy="-112.4" rx="36.3" ry="36.3"/>
<ellipse fill="none" stroke="black" cx="201" cy="-112.4" rx="40.29" ry="40.29"/>
<text text-anchor="middle" x="201" y="-108.7" font-family="Times,serif" font-size="14.00">index</text>
</g>
<!-- server&#45;&gt;index -->
<g id="edge8" class="edge">
<title>server&#45;&gt;index</title>
<path fill="none" stroke="black" d="M112,-149C120.88,-149 133.41,-149 145.2,-149"/>
<polygon fill="black" stroke="black" points="149,-144 149.01,-154 147.01,-154 147,-144 149,-144"/>
<polyline fill="none" stroke="black" points="150,-149 145,-149"/>
</g>
<!-- data -->
<g id="node8" class="node">
<title>data</title>
<ellipse fill="none" stroke="black" cx="60" cy="-112.4" rx="31.4" ry="31.4"/>
<text text-anchor="middle" x="60" y="-108.7" font-family="Times,serif" font-size="14.00">data</text>
</g>
<!-- server&#45;&gt;data -->
<g id="edge2" class="edge">
<title>server&#45;&gt;data</title>
<path fill="none" stroke="black" stroke-dasharray="1,5" d="M44.4,-191.55C44.4,-191.55 44.4,-148.98 44.4,-148.98"/>
<ellipse fill="none" stroke="black" cx="44.4" cy="-144.48" rx="4" ry="4"/>
</g>
<!-- index&#45;&gt;response -->
<g id="edge10" class="edge">
<title>index&#45;&gt;response</title>
<path fill="none" stroke="black" d="M150,-76C139.31,-76 131.2,-76 131.2,-76 131.2,-76 131.2,-44.72 131.2,-44.72"/>
<ellipse fill="black" stroke="black" cx="131.2" cy="-40.22" rx="4" ry="4"/>
</g>
<!-- index&#45;&gt;server -->
<g id="edge9" class="edge">
<title>index&#45;&gt;server</title>
<path fill="none" stroke="black" d="M150,-146C138.27,-146 126.43,-146 116.8,-146"/>
<polygon fill="black" stroke="black" points="113,-151 113,-141 115,-141 115,-151 113,-151"/>
<polyline fill="none" stroke="black" points="112,-146 117,-146"/>
</g>
<!-- local_storage -->
<g id="node6" class="node">
<title>local_storage</title>
<polygon fill="none" stroke="black" points="331,-36 221,-36 221,0 331,0 331,-36"/>
<text text-anchor="middle" x="276" y="-14.3" font-family="Times,serif" font-size="14.00">local_storage</text>
</g>
<!-- index&#45;&gt;local_storage -->
<g id="edge3" class="edge">
<title>index&#45;&gt;local_storage</title>
<path fill="none" stroke="black" stroke-dasharray="1,5" d="M231.2,-85.09C231.2,-69.41 231.2,-50.14 231.2,-36.28"/>
</g>
<!-- results -->
<g id="node5" class="node">
<title>results</title>
<ellipse fill="none" stroke="black" cx="201" cy="-233.09" rx="42.79" ry="42.79"/>
<text text-anchor="middle" x="201" y="-229.39" font-family="Times,serif" font-size="14.00">results</text>
</g>
<!-- results&#45;&gt;index -->
<g id="edge6" class="edge">
<title>results&#45;&gt;index</title>
<path fill="none" stroke="black" d="M214.47,-192.23C214.47,-178.82 214.47,-163.98 214.47,-150.77"/>
</g>
<!-- user_inputs -->
<g id="node7" class="node">
<title>user_inputs</title>
<polygon fill="none" stroke="black" points="398,-251.09 298,-251.09 298,-215.09 398,-215.09 398,-251.09"/>
<text text-anchor="middle" x="348" y="-229.39" font-family="Times,serif" font-size="14.00">user_inputs</text>
</g>
<!-- user_inputs&#45;&gt;index -->
<g id="edge5" class="edge">
<title>user_inputs&#45;&gt;index</title>
<path fill="none" stroke="black" d="M314.5,-214.7C314.5,-180.82 314.5,-112 314.5,-112 314.5,-112 251.66,-112 251.66,-112"/>
<polygon fill="black" stroke="black" points="241.66,-112 251.66,-107.5 246.66,-112 251.66,-112 251.66,-112 251.66,-112 246.66,-112 251.66,-116.5 241.66,-112 241.66,-112"/>
</g>
<!-- data&#45;&gt;server -->
<g id="edge1" class="edge">
<title>data&#45;&gt;server</title>
<path fill="none" stroke="black" stroke-dasharray="1,5" d="M60,-144.11C60,-144.11 60,-179.89 60,-179.89"/>
<ellipse fill="none" stroke="black" cx="60" cy="-184.39" rx="4" ry="4"/>
</g>
<!-- data&#45;&gt;results -->
<g id="edge4" class="edge">
<title>data&#45;&gt;results</title>
<path fill="none" stroke="black" stroke-dasharray="1,5" d="M75.6,-140.19C75.6,-154.92 75.6,-170 75.6,-170 75.6,-170 187.53,-170 187.53,-170 187.53,-170 187.53,-182.07 187.53,-182.07"/>
<polygon fill="black" stroke="black" points="187.53,-192.07 183.03,-182.07 187.53,-187.07 187.53,-182.07 187.53,-182.07 187.53,-182.07 187.53,-187.07 192.03,-182.07 187.53,-192.07 187.53,-192.07"/>
</g>
</g>
</svg>
